<?xml version="1.0" encoding="UTF-8"?>
<svg width="700pt" height="700pt" version="1.1" viewBox="0 0 700 700" xmlns="http://www.w3.org/2000/svg" xmlns:xlink="http://www.w3.org/1999/xlink">
 <defs>
  <symbol id="v" overflow="visible">
   <path d="m3.5625-0.21875c-0.1875 0.10547-0.38281 0.17969-0.57812 0.21875-0.19922 0.050781-0.40625 0.078125-0.625 0.078125-0.64844 0-1.1562-0.17578-1.5312-0.53125-0.375-0.36328-0.5625-0.85938-0.5625-1.4844 0-0.61328 0.1875-1.0977 0.5625-1.4531 0.375-0.36328 0.88281-0.54688 1.5312-0.54688 0.21875 0 0.42578 0.027344 0.625 0.078125 0.19531 0.042969 0.39062 0.10938 0.57812 0.20312v0.79688c-0.1875-0.125-0.375-0.21094-0.5625-0.26562-0.17969-0.0625-0.36719-0.09375-0.5625-0.09375-0.35547 0-0.63672 0.11719-0.84375 0.34375-0.19922 0.23047-0.29688 0.54297-0.29688 0.9375 0 0.40625 0.097656 0.72656 0.29688 0.95312 0.20703 0.21875 0.48828 0.32812 0.84375 0.32812 0.19531 0 0.38281-0.023438 0.5625-0.078125 0.1875-0.0625 0.375-0.15625 0.5625-0.28125z"/>
  </symbol>
  <symbol id="e" overflow="visible">
   <path d="m2.6094-2.1094c-0.085937-0.039063-0.16797-0.066406-0.25-0.078125-0.085937-0.019531-0.16406-0.03125-0.23438-0.03125-0.24219 0-0.42969 0.078125-0.5625 0.23438-0.125 0.14844-0.1875 0.35938-0.1875 0.64062v1.3438h-0.92188v-2.9062h0.92188v0.48438c0.11328-0.19531 0.25-0.33594 0.40625-0.42188 0.15625-0.082031 0.34375-0.125 0.5625-0.125h0.09375c0.039062 0 0.097656 0.007812 0.17188 0.015625z"/>
  </symbol>
  <symbol id="b" overflow="visible">
   <path d="m3.3438-1.4531v0.25h-2.1719c0.019531 0.21875 0.097656 0.38672 0.23438 0.5 0.13281 0.10547 0.32812 0.15625 0.57812 0.15625 0.1875 0 0.38281-0.023437 0.59375-0.078125 0.20703-0.0625 0.41406-0.14844 0.625-0.26562v0.71875c-0.21875 0.085938-0.4375 0.14844-0.65625 0.1875s-0.4375 0.0625-0.65625 0.0625c-0.52344 0-0.92969-0.12891-1.2188-0.39062-0.29297-0.26953-0.4375-0.64844-0.4375-1.1406 0-0.46875 0.14062-0.83594 0.42188-1.1094 0.28906-0.26953 0.6875-0.40625 1.1875-0.40625 0.45703 0 0.82031 0.13672 1.0938 0.40625 0.26953 0.27344 0.40625 0.64062 0.40625 1.1094zm-0.95312-0.3125c0-0.17578-0.054687-0.31641-0.15625-0.42188-0.10547-0.11328-0.24219-0.17188-0.40625-0.17188-0.17969 0-0.32422 0.054687-0.4375 0.15625-0.10547 0.10547-0.17188 0.25-0.20312 0.4375z"/>
  </symbol>
  <symbol id="f" overflow="visible">
   <path d="m1.75-1.3125c-0.19922 0-0.34375 0.039062-0.4375 0.10938-0.09375 0.0625-0.14062 0.15625-0.14062 0.28125s0.035156 0.21875 0.10938 0.28125c0.082031 0.0625 0.19141 0.09375 0.32812 0.09375 0.17578 0 0.32031-0.0625 0.4375-0.1875 0.125-0.125 0.1875-0.28125 0.1875-0.46875v-0.10938zm1.4219-0.34375v1.6562h-0.9375v-0.4375c-0.125 0.17969-0.26562 0.30859-0.42188 0.39062-0.15625 0.082031-0.34375 0.125-0.5625 0.125-0.30469 0-0.54688-0.085938-0.73438-0.26562-0.1875-0.17578-0.28125-0.40625-0.28125-0.6875 0-0.33203 0.11328-0.57812 0.34375-0.73438 0.23828-0.16406 0.60938-0.25 1.1094-0.25h0.54688v-0.078125c0-0.14453-0.058594-0.25-0.17188-0.3125-0.11719-0.070312-0.29688-0.10938-0.54688-0.10938-0.19922 0-0.38672 0.023437-0.5625 0.0625-0.16797 0.042969-0.32422 0.10156-0.46875 0.17188v-0.70312c0.19531-0.050781 0.39453-0.085937 0.59375-0.10938 0.19531-0.019531 0.39844-0.03125 0.60938-0.03125 0.51953 0 0.89453 0.10547 1.125 0.3125 0.23828 0.19922 0.35938 0.53125 0.35938 1z"/>
  </symbol>
  <symbol id="a" overflow="visible">
   <path d="m1.4531-3.7344v0.82812h0.96875v0.67188h-0.96875v1.2188c0 0.13672 0.023437 0.23047 0.078125 0.28125 0.0625 0.042969 0.17188 0.0625 0.32812 0.0625h0.48438v0.67188h-0.79688c-0.375 0-0.64062-0.070312-0.79688-0.21875-0.14844-0.15625-0.21875-0.42188-0.21875-0.79688v-1.2188h-0.46875v-0.67188h0.46875v-0.82812z"/>
  </symbol>
  <symbol id="i" overflow="visible">
   <path d="m2.4219-2.4844v-1.5469h0.9375v4.0312h-0.9375v-0.42188c-0.125 0.17969-0.26562 0.30859-0.42188 0.39062-0.15625 0.070312-0.33594 0.10938-0.53125 0.10938-0.36719 0-0.66406-0.14062-0.89062-0.42188-0.23047-0.28906-0.34375-0.66016-0.34375-1.1094 0-0.44531 0.11328-0.8125 0.34375-1.0938 0.22656-0.28125 0.52344-0.42188 0.89062-0.42188 0.19531 0 0.375 0.042969 0.53125 0.125 0.15625 0.074219 0.29688 0.19531 0.42188 0.35938zm-0.60938 1.8906c0.19531 0 0.34766-0.070312 0.45312-0.21875 0.10156-0.14453 0.15625-0.35938 0.15625-0.64062 0-0.26953-0.054687-0.47656-0.15625-0.625-0.10547-0.14453-0.25781-0.21875-0.45312-0.21875-0.19922 0-0.35156 0.074219-0.45312 0.21875-0.10547 0.14844-0.15625 0.35547-0.15625 0.625 0 0.28125 0.050781 0.49609 0.15625 0.64062 0.10156 0.14844 0.25391 0.21875 0.45312 0.21875z"/>
  </symbol>
  <symbol id="h" overflow="visible">
   <path d="m2-0.59375c0.19531 0 0.34766-0.070312 0.45312-0.21875 0.10156-0.14453 0.15625-0.35938 0.15625-0.64062 0-0.26953-0.054687-0.47656-0.15625-0.625-0.10547-0.14453-0.25781-0.21875-0.45312-0.21875-0.21094 0-0.36719 0.074219-0.46875 0.21875-0.10547 0.14844-0.15625 0.35547-0.15625 0.625 0 0.28125 0.050781 0.49609 0.15625 0.64062 0.10156 0.14844 0.25781 0.21875 0.46875 0.21875zm-0.625-1.8906c0.125-0.16406 0.26562-0.28516 0.42188-0.35938 0.15625-0.082031 0.33594-0.125 0.54688-0.125 0.35156 0 0.64453 0.14062 0.875 0.42188 0.22656 0.28125 0.34375 0.64844 0.34375 1.0938 0 0.44922-0.11719 0.82031-0.34375 1.1094-0.23047 0.28125-0.52344 0.42188-0.875 0.42188-0.21094 0-0.39062-0.042969-0.54688-0.125-0.15625-0.082031-0.29688-0.20703-0.42188-0.375v0.42188h-0.92188v-4.0312h0.92188z"/>
  </symbol>
  <symbol id="d" overflow="visible">
   <path d="m0.0625-2.9062h0.9375l0.78125 1.9688 0.65625-1.9688h0.92188l-1.2188 3.1875c-0.11719 0.32031-0.25781 0.54688-0.42188 0.67188-0.16797 0.125-0.38672 0.1875-0.65625 0.1875h-0.53125v-0.60938h0.29688c0.15625 0 0.26953-0.027344 0.34375-0.078125 0.070313-0.042969 0.125-0.13281 0.15625-0.26562l0.03125-0.078125z"/>
  </symbol>
  <symbol id="g" overflow="visible">
   <path d="m0.48438-3.875h1v3.5c0 0.47656-0.13281 0.83594-0.39062 1.0781-0.26172 0.23828-0.65625 0.35938-1.1875 0.35938h-0.20312v-0.75h0.15625c0.20703 0 0.36328-0.058594 0.46875-0.17188 0.10156-0.11719 0.15625-0.28516 0.15625-0.51562z"/>
  </symbol>
  <symbol id="c" overflow="visible">
   <path d="m1.8281-2.3125c-0.21094 0-0.36719 0.074219-0.46875 0.21875-0.10547 0.14844-0.15625 0.35938-0.15625 0.64062s0.050781 0.49609 0.15625 0.64062c0.10156 0.14844 0.25781 0.21875 0.46875 0.21875 0.19531 0 0.34766-0.070312 0.45312-0.21875 0.11328-0.14453 0.17188-0.35938 0.17188-0.64062s-0.058594-0.49219-0.17188-0.64062c-0.10547-0.14453-0.25781-0.21875-0.45312-0.21875zm0-0.65625c0.5 0 0.89062 0.13672 1.1719 0.40625 0.28125 0.26172 0.42188 0.63281 0.42188 1.1094 0 0.48047-0.14062 0.85547-0.42188 1.125-0.28125 0.27344-0.67188 0.40625-1.1719 0.40625s-0.89062-0.13281-1.1719-0.40625c-0.28125-0.26953-0.42188-0.64453-0.42188-1.125 0-0.47656 0.14062-0.84766 0.42188-1.1094 0.28125-0.26953 0.67188-0.40625 1.1719-0.40625z"/>
  </symbol>
  <symbol id="u" overflow="visible">
   <path d="m0.45312-2.9062h0.92188v2.9062h-0.92188zm0-1.125h0.92188v0.75h-0.92188z"/>
  </symbol>
  <symbol id="t" overflow="visible">
   <path d="m0.03125-3.875h1l1.0312 2.8594 1.0156-2.8594h1l-1.4219 3.875h-1.2031z"/>
  </symbol>
  <symbol id="s" overflow="visible">
   <path d="m2.7188-2.8125v0.70312c-0.19922-0.082031-0.39062-0.14453-0.57812-0.1875-0.1875-0.039063-0.36719-0.0625-0.53125-0.0625-0.17969 0-0.30859 0.027344-0.39062 0.078125-0.085938 0.042969-0.125 0.10547-0.125 0.1875 0 0.074219 0.03125 0.13281 0.09375 0.17188 0.070312 0.042969 0.19141 0.074219 0.35938 0.09375l0.15625 0.015625c0.47656 0.0625 0.79688 0.16797 0.95312 0.3125 0.16406 0.13672 0.25 0.35156 0.25 0.64062 0 0.3125-0.11719 0.54688-0.34375 0.70312-0.23047 0.15625-0.57031 0.23438-1.0156 0.23438-0.1875 0-0.38672-0.015625-0.59375-0.046875-0.21094-0.03125-0.42188-0.078125-0.64062-0.14062v-0.70312c0.1875 0.09375 0.37891 0.16406 0.57812 0.20312 0.19531 0.042969 0.39453 0.0625 0.59375 0.0625 0.17578 0 0.3125-0.019531 0.40625-0.0625 0.09375-0.050781 0.14062-0.12891 0.14062-0.23438 0-0.082031-0.03125-0.14453-0.09375-0.1875-0.0625-0.039062-0.1875-0.070312-0.375-0.09375l-0.17188-0.015625c-0.41797-0.050781-0.71094-0.14453-0.875-0.28125-0.15625-0.14453-0.23438-0.35938-0.23438-0.64062 0-0.3125 0.10156-0.53906 0.3125-0.6875 0.20703-0.14453 0.53125-0.21875 0.96875-0.21875 0.16406 0 0.34375 0.015625 0.53125 0.046875 0.19531 0.023437 0.40625 0.058594 0.625 0.10938z"/>
  </symbol>
  <symbol id="r" overflow="visible">
   <path d="m2.3594-4.0312v0.60938h-0.51562c-0.13672 0-0.23047 0.027344-0.28125 0.078125-0.054688 0.042969-0.078125 0.12109-0.078125 0.23438v0.20312h0.79688v0.67188h-0.79688v2.2344h-0.92188v-2.2344h-0.46875v-0.67188h0.46875v-0.20312c0-0.3125 0.085938-0.53906 0.26562-0.6875 0.17578-0.15625 0.44531-0.23438 0.8125-0.23438z"/>
  </symbol>
  <symbol id="q" overflow="visible">
   <path d="m3.1406-2.4219c0.11328-0.17578 0.25-0.3125 0.40625-0.40625 0.16406-0.09375 0.34766-0.14062 0.54688-0.14062 0.33203 0 0.58203 0.10547 0.75 0.3125 0.17578 0.19922 0.26562 0.49609 0.26562 0.89062v1.7656h-0.92188v-1.5156-0.0625-0.10938c0-0.20703-0.03125-0.35938-0.09375-0.45312s-0.16406-0.14062-0.29688-0.14062c-0.17969 0-0.3125 0.074219-0.40625 0.21875-0.09375 0.14844-0.14062 0.35938-0.14062 0.64062v1.4219h-0.9375v-1.5156c0-0.32031-0.03125-0.53125-0.09375-0.625-0.054688-0.09375-0.14844-0.14062-0.28125-0.14062-0.17969 0-0.32031 0.074219-0.42188 0.21875-0.09375 0.14844-0.14062 0.35938-0.14062 0.64062v1.4219h-0.9375v-2.9062h0.9375v0.42188c0.11328-0.15625 0.24219-0.27344 0.39062-0.35938 0.14453-0.082031 0.30469-0.125 0.48438-0.125 0.20703 0 0.38281 0.046875 0.53125 0.14062 0.15625 0.09375 0.27344 0.23047 0.35938 0.40625z"/>
  </symbol>
  <symbol id="p" overflow="visible">
   <path d="m3.3594-1.7656v1.7656h-0.92188v-1.3438c0-0.25781-0.007812-0.4375-0.015625-0.53125-0.011719-0.09375-0.03125-0.16016-0.0625-0.20312-0.042969-0.0625-0.09375-0.10938-0.15625-0.14062-0.0625-0.039062-0.13281-0.0625-0.20312-0.0625-0.19922 0-0.35547 0.078125-0.46875 0.23438-0.10547 0.14844-0.15625 0.35547-0.15625 0.625v1.4219h-0.92188v-4.0312h0.92188v1.5469c0.13281-0.16406 0.28125-0.28516 0.4375-0.35938 0.16406-0.082031 0.34375-0.125 0.53125-0.125 0.33203 0 0.58203 0.10547 0.75 0.3125 0.17578 0.19922 0.26562 0.49609 0.26562 0.89062z"/>
  </symbol>
  <symbol id="o" overflow="visible">
   <path d="m0.48438-3.875h1.125l1.4062 2.6562v-2.6562h0.9375v3.875h-1.1094l-1.4062-2.6562v2.6562h-0.95312z"/>
  </symbol>
  <symbol id="n" overflow="visible">
   <path d="m0.42188-1.125v-1.7812h0.92188v0.29688 0.59375 0.46875c0 0.23047 0.003906 0.39844 0.015625 0.5 0.007813 0.10547 0.03125 0.18359 0.0625 0.23438 0.039063 0.0625 0.09375 0.10938 0.15625 0.14062s0.12891 0.046875 0.20312 0.046875c0.19531 0 0.34766-0.070312 0.45312-0.21875 0.11328-0.15625 0.17188-0.36328 0.17188-0.625v-1.4375h0.92188v2.9062h-0.92188v-0.42188c-0.13672 0.16797-0.28125 0.29297-0.4375 0.375-0.15625 0.082031-0.33594 0.125-0.53125 0.125-0.33594 0-0.58984-0.10156-0.76562-0.3125-0.16797-0.20703-0.25-0.50391-0.25-0.89062z"/>
  </symbol>
  <symbol id="m" overflow="visible">
   <path d="m3.3594-1.7656v1.7656h-0.92188v-1.3594c0-0.25-0.007812-0.42188-0.015625-0.51562-0.011719-0.09375-0.03125-0.16016-0.0625-0.20312-0.042969-0.0625-0.09375-0.10938-0.15625-0.14062-0.0625-0.039062-0.13281-0.0625-0.20312-0.0625-0.19922 0-0.35547 0.078125-0.46875 0.23438-0.10547 0.14844-0.15625 0.35547-0.15625 0.625v1.4219h-0.92188v-2.9062h0.92188v0.42188c0.13281-0.16406 0.28125-0.28516 0.4375-0.35938 0.16406-0.082031 0.34375-0.125 0.53125-0.125 0.33203 0 0.58203 0.10547 0.75 0.3125 0.17578 0.19922 0.26562 0.49609 0.26562 0.89062z"/>
  </symbol>
  <symbol id="l" overflow="visible">
   <path d="m0.48438-3.875h1.6562c0.5 0 0.87891 0.10938 1.1406 0.32812 0.25781 0.21875 0.39062 0.53125 0.39062 0.9375s-0.13281 0.71875-0.39062 0.9375c-0.26172 0.21875-0.64062 0.32812-1.1406 0.32812h-0.65625v1.3438h-1zm1 0.71875v1.0938h0.54688c0.19531 0 0.34766-0.046875 0.45312-0.14062 0.10156-0.09375 0.15625-0.22656 0.15625-0.40625 0-0.17578-0.054687-0.3125-0.15625-0.40625-0.10547-0.09375-0.25781-0.14062-0.45312-0.14062z"/>
  </symbol>
  <symbol id="k" overflow="visible">
   <path d="m0.45312-2.9062h0.92188v2.8594c0 0.38281-0.09375 0.67578-0.28125 0.875-0.1875 0.20703-0.46094 0.3125-0.8125 0.3125h-0.45312v-0.60938h0.15625c0.17578 0 0.29688-0.042969 0.35938-0.125 0.070312-0.074219 0.10938-0.22656 0.10938-0.45312zm0-1.125h0.92188v0.75h-0.92188z"/>
  </symbol>
  <symbol id="j" overflow="visible">
   <path d="m2.7969-2.8125v0.75c-0.125-0.082031-0.25781-0.14453-0.39062-0.1875-0.125-0.039062-0.25781-0.0625-0.39062-0.0625-0.26172 0-0.46484 0.078125-0.60938 0.23438-0.13672 0.14844-0.20312 0.35547-0.20312 0.625 0 0.27344 0.066406 0.48438 0.20312 0.64062 0.14453 0.14844 0.34766 0.21875 0.60938 0.21875 0.14453 0 0.28125-0.019531 0.40625-0.0625 0.13281-0.039062 0.25781-0.10156 0.375-0.1875v0.76562c-0.14844 0.054688-0.29688 0.085938-0.45312 0.10938-0.14844 0.03125-0.29297 0.046875-0.4375 0.046875-0.53125 0-0.94531-0.13281-1.2344-0.40625-0.29297-0.26953-0.4375-0.64453-0.4375-1.125 0-0.47656 0.14453-0.84766 0.4375-1.1094 0.28906-0.26953 0.70312-0.40625 1.2344-0.40625 0.14453 0 0.28906 0.015625 0.4375 0.046875 0.15625 0.023437 0.30469 0.058594 0.45312 0.10938z"/>
  </symbol>
 </defs>
 <g>
  <path d="m547.96 82.035c-108.7-109.98-286.05-110.94-395.93-2.125s-110.83 286.06-2.125 395.93c0.74219 0.74219 1.3828 1.3828 2.125 2.125 108.81 109.88 286.06 110.83 395.93 2.125s110.83-286.06 2.125-395.93c-0.74609-0.74609-1.3828-1.4883-2.1289-2.125zm-11.262 384.67c-104.35 101.8-271.5 99.777-373.41-4.5703-100.1-102.54-100.1-266.29 0-368.84 103.71-102.54 270.97-101.48 373.4 2.2305 101.7 102.86 101.7 268.31 0.003906 371.18z"/>
  <path d="m445.53 342.59c-33.793 0-61.102 27.309-61.102 61.102 0 33.793 27.309 61.102 61.102 61.102s61.102-27.309 61.102-61.102c-0.003906-33.793-27.312-61.102-61.102-61.102zm0 106.26c-24.973 0-45.16-20.191-45.16-45.16 0-24.973 20.191-45.16 45.16-45.16 24.973 0 45.16 20.191 45.16 45.16 0 24.863-20.191 45.051-45.16 45.16z"/>
  <path d="m579.63 190.21c0-39.211-31.773-70.984-70.984-70.984-7.9688 0-15.938 1.3828-23.484 4.0391-27.414-23.695-60.676-39.742-96.379-46.543-18.066-41.867-66.734-61.207-108.6-43.035-30.285 13.07-49.836 42.824-49.836 75.766 0 3.6133 0.21094 7.332 0.74219 10.945-44.949-7.543-87.559 22.738-95.105 67.688-3.1875 19.129 0.42578 38.785 10.199 55.574-20.297 112.43 54.406 219.96 166.73 240.26 26.246 4.7812 53.133 4.3555 79.164-1.0625 43.672 29.539 102.97 18.066 132.51-25.609 16.895-25.078 21.039-56.637 10.945-85.223 19.445-39.422 25.82-83.84 18.488-127.2 16.266-13.492 25.617-33.574 25.617-54.617zm-15.941 0c0 30.391-24.652 55.043-55.043 55.043-30.391 0-55.043-24.652-55.043-55.043s24.652-55.043 55.043-55.043c30.391 0 55.043 24.652 55.043 55.043zm-250.78-147.49c26.566 0 50.688 15.832 61.207 40.273-0.21094 2.3359 0.63672 4.5703 2.3359 6.1641 11.156 35.066-8.2891 72.578-43.355 83.734-35.066 11.156-72.578-8.2891-83.734-43.355s8.2891-72.578 43.355-83.734c6.5898-2.0195 13.391-3.082 20.191-3.082zm50.688 131.87c34.641 12.539 52.602 50.688 40.062 85.328-12.539 34.641-50.688 52.602-85.328 40.062-19.234-6.9062-34.215-22.316-40.594-41.762 14.344-15.301 22.422-35.492 22.422-56.426 0-3.6133-0.21094-7.332-0.74219-10.945 22.633 3.8242 46.008-2.125 64.18-16.258zm-146.11-39.426c6.0586 0 12.008 0.85156 17.852 2.4453 8.0742 22.102 25.078 39.637 46.969 48.457 8.7148 35.809-13.281 71.832-48.988 80.547-35.703 8.7109-71.938-13.285-80.652-49.094-8.7148-35.809 13.281-71.832 48.988-80.547 5.207-1.2773 10.41-1.8086 15.832-1.8086zm228.04 348.01c-43.887 0-79.484-35.598-79.484-79.484s35.598-79.484 79.484-79.484 79.484 35.598 79.484 79.484c-0.003906 43.887-35.602 79.379-79.484 79.484zm80.969-129.96c-27.84-44.734-86.711-58.445-131.45-30.602-44.734 27.84-58.445 86.711-30.602 131.45 3.3984 5.418 7.332 10.52 11.797 15.195-104.56 14.559-201.05-58.445-215.61-162.9-2.125-15.09-2.3359-30.285-0.85156-45.375 28.371 27.734 72.578 31.242 104.99 8.3945 17.746 42.078 66.199 61.738 108.18 43.992 41.973-17.746 61.738-66.199 43.992-108.18-7.9688-18.809-22.527-34.004-40.91-42.609 16.047-18.914 22.633-44.098 17.957-68.434 27.629 6.4805 53.344 19.129 75.445 36.871-32.73 21.57-41.762 65.668-20.082 98.398 19.551 29.648 57.914 40.273 89.898 24.867 4.5625 33.473 0.20703 67.582-12.758 98.93z"/>
  <path d="m511.73 192.33c0 4.5781-3.7109 8.2891-8.2891 8.2891s-8.2891-3.7109-8.2891-8.2891c0-4.5742 3.7109-8.2852 8.2891-8.2852s8.2891 3.7109 8.2891 8.2852"/>
  <path d="m489.31 206.15c-4.5703 0-8.2891 3.7188-8.2891 8.2891s3.7188 8.2891 8.2891 8.2891c4.5703 0 8.2891-3.7188 8.2891-8.2891s-3.7188-8.2891-8.2891-8.2891z"/>
  <path d="m481.02 190.21c4.5703 0 8.2891-3.7188 8.2891-8.2891 0-4.5703-3.7188-8.2891-8.2891-8.2891-4.5703 0-8.2891 3.7188-8.2891 8.2891 0.003906 4.5703 3.7227 8.2891 8.2891 8.2891z"/>
  <use x="70" y="575.9375" xlink:href="#v"/>
  <use x="73.898438" y="575.9375" xlink:href="#e"/>
  <use x="76.519531" y="575.9375" xlink:href="#b"/>
  <use x="80.121094" y="575.9375" xlink:href="#f"/>
  <use x="83.707031" y="575.9375" xlink:href="#a"/>
  <use x="86.246094" y="575.9375" xlink:href="#b"/>
  <use x="89.851562" y="575.9375" xlink:href="#i"/>
  <use x="95.503906" y="575.9375" xlink:href="#h"/>
  <use x="99.308594" y="575.9375" xlink:href="#d"/>
  <use x="104.621094" y="575.9375" xlink:href="#g"/>
  <use x="106.597656" y="575.9375" xlink:href="#d"/>
  <use x="110.0625" y="575.9375" xlink:href="#c"/>
  <use x="113.710938" y="575.9375" xlink:href="#a"/>
  <use x="116.25" y="575.9375" xlink:href="#u"/>
  <use x="119.921875" y="575.9375" xlink:href="#t"/>
  <use x="124.035156" y="575.9375" xlink:href="#d"/>
  <use x="127.496094" y="575.9375" xlink:href="#f"/>
  <use x="131.082031" y="575.9375" xlink:href="#s"/>
  <use x="70" y="581.253906" xlink:href="#r"/>
  <use x="72.3125" y="581.253906" xlink:href="#e"/>
  <use x="74.933594" y="581.253906" xlink:href="#c"/>
  <use x="78.582031" y="581.253906" xlink:href="#q"/>
  <use x="85.96875" y="581.253906" xlink:href="#a"/>
  <use x="88.507812" y="581.253906" xlink:href="#p"/>
  <use x="92.289062" y="581.253906" xlink:href="#b"/>
  <use x="97.742188" y="581.253906" xlink:href="#o"/>
  <use x="102.191406" y="581.253906" xlink:href="#c"/>
  <use x="105.839844" y="581.253906" xlink:href="#n"/>
  <use x="109.621094" y="581.253906" xlink:href="#m"/>
  <use x="115.253906" y="581.253906" xlink:href="#l"/>
  <use x="119.148438" y="581.253906" xlink:href="#e"/>
  <use x="121.769531" y="581.253906" xlink:href="#c"/>
  <use x="125.417969" y="581.253906" xlink:href="#k"/>
  <use x="127.242188" y="581.253906" xlink:href="#b"/>
  <use x="130.84375" y="581.253906" xlink:href="#j"/>
  <use x="133.992188" y="581.253906" xlink:href="#a"/>
 </g>
</svg>
